<svg xmlns="http://www.w3.org/2000/svg" viewBox="0 0 240 240">
  <rect width="240" height="240" rx="52" fill="#f8fafc"/><g transform="translate(120 91)"><path d="M0-57A57 57 0 0 1 49 29L18 12A22 22 0 0 0 0-22Z" fill="#2374bb"/><path d="M49 29A57 57 0 0 1-49 29l31-17A22 22 0 0 0 18 12Z" fill="#5aa6dc"/><path d="M-49 29A57 57 0 0 1 0-57v35a22 22 0 0 0-18 34Z" fill="#9aa7b3"/></g><text x="120" y="181" text-anchor="middle" font-family="Arial,sans-serif" font-weight="700" font-size="28" fill="#1e5d91">MICT SETA</text>
</svg>
